<svg t="1731734295571" class="icon" viewBox="0 0 1024 1024" version="1.1" xmlns="http://www.w3.org/2000/svg" p-id="6230" width="50" height="50"><path d="M512.010445 0.000585A512.281535 512.281535 0 0 0 1.016196 479.339287c-19.250785 305.964609 237.679908 562.895302 543.644517 543.644517A511.98897 511.98897 0 0 0 512.010445 0.000585z" fill="#FF8B33" p-id="6231"></path><path d="M718.561424 748.967307V554.704064h-48.390272v144.995276h-339.375546V554.704064h-48.273246V748.967307zM508.441151 282.208906l-30.777852 36.921718 186.363985 155.586134 29.900156-35.868484zM437.230799 384.138595l-20.186994 43.943282 218.897227 101.110508 20.186994-43.065587z m-42.187891 109.887462l-9.654649 46.81042 236.451134 50.145662 10.532345-47.512576zM380.356138 603.035823v48.331758h243.472698v-48.331758z m323.460004-174.953946l38.677109-29.256512L598.141618 204.796173l-39.554805 28.086252z" fill="#FFFFFF" p-id="6232"></path></svg>